ffmpeg started on 2025-05-12 at 16:40:14
Report written to "D:\Convert\FFMetrics\reports\ssim_report-6.txt"
Log level: 32
Command line:
ffmpeg -hide_banner -nostdin -i "G:\\\xc0\xed\xe8\xec\xe5\\\xce\xed\xe3\xee\xe8\xed\xe3\xe8\\!_35_\xcb\xe5\xf2\xee_2024\\DreamCast\\\xcc\xee\xff \xef\xee\xe4\xf0\xf3\xe3\xe0-\xee\xeb\xe5\xed\xe8\xf5\xe0, \xcd\xee\xea\xee\xf2\xe0\xed\\[DC] Shikanoko Nokonoko Koshitantan - 07_Telegram_HEVC.mkv" -i "G:\\\xc0\xed\xe8\xec\xe5\\\xce\xed\xe3\xee\xe8\xed\xe3\xe8\\!_35_\xcb\xe5\xf2\xee_2024\\DreamCast\\\xcc\xee\xff \xef\xee\xe4\xf0\xf3\xe3\xe0-\xee\xeb\xe5\xed\xe8\xf5\xe0, \xcd\xee\xea\xee\xf2\xe0\xed\\[DC] Shikanoko Nokonoko Koshitantan - 07_Telegram.mp4" -lavfi "[0:v]settb=AVTB,setpts=PTS-STARTPTS,format=pix_fmts=yuv420p10,fps=24000/1001,scale=1920:1080:flags=bicubic[main];[1:v]settb=AVTB,setpts=PTS-STARTPTS,format=pix_fmts=yuv420p,fps=24000/1001,scale=1920:1080:flags=bicubic[ref];[main][ref]ssim=eof_action=endall:stats_file='D\\:/Convert/FFMetrics/logs/ssim_logfile-6.txt'" -f null -
Input #0, matroska,webm, from 'G:\Аниме\Онгоинги\!_35_Лето_2024\DreamCast\Моя подруга-олениха, Нокотан\[DC] Shikanoko Nokonoko Koshitantan - 07_Telegram_HEVC.mkv':
  Metadata:
    COMPATIBLE_BRANDS: isomiso2avc1mp41
    MAJOR_BRAND     : isom
    MINOR_VERSION   : 512
    ENCODER         : Lavf61.7.100
  Duration: 00:23:41.61, start: -0.021000, bitrate: 1608 kb/s
  Stream #0:0: Video: hevc (Main 10), yuv420p10le(tv, bt709, progressive), 1920x1080 [SAR 1:1 DAR 16:9], 23.98 fps, 23.98 tbr, 1k tbn (default)
      Metadata:
        HANDLER_NAME    : VideoHandler
        VENDOR_ID       : [0][0][0][0]
        ENCODER         : Lavc61.19.100 libx265
        BPS             : 1411642
        DURATION        : 00:23:41.503708333
        NUMBER_OF_FRAMES: 34082
        NUMBER_OF_BYTES : 250831815
        _STATISTICS_WRITING_APP: mkvpropedit v66.0.0 ('Josie') 64-bit
        _STATISTICS_WRITING_DATE_UTC: 2025-05-08 11:05:08
        _STATISTICS_TAGS: BPS DURATION NUMBER_OF_FRAMES NUMBER_OF_BYTES
  Stream #0:1: Audio: aac (LC), 48000 Hz, stereo, fltp (default)
      Metadata:
        HANDLER_NAME    : SoundHandler
        VENDOR_ID       : [0][0][0][0]
        ENCODER         : Lavc61.19.100 aac
        BPS             : 192857
        DURATION        : 00:23:41.610000000
        NUMBER_OF_FRAMES: 66639
        NUMBER_OF_BYTES : 34271070
        _STATISTICS_WRITING_APP: mkvpropedit v66.0.0 ('Josie') 64-bit
        _STATISTICS_WRITING_DATE_UTC: 2025-05-08 11:05:08
        _STATISTICS_TAGS: BPS DURATION NUMBER_OF_FRAMES NUMBER_OF_BYTES
Input #1, mov,mp4,m4a,3gp,3g2,mj2, from 'G:\Аниме\Онгоинги\!_35_Лето_2024\DreamCast\Моя подруга-олениха, Нокотан\[DC] Shikanoko Nokonoko Koshitantan - 07_Telegram.mp4':
  Metadata:
    major_brand     : isom
    minor_version   : 512
    compatible_brands: isomiso2avc1mp41
    encoder         : Lavf60.16.100
  Duration: 00:23:41.57, start: 0.000000, bitrate: 3610 kb/s
  Stream #1:0[0x1](und): Video: h264 (High) (avc1 / 0x31637661), yuv420p(tv, bt709, progressive), 1920x1080 [SAR 1:1 DAR 16:9], 3462 kb/s, 23.98 fps, 23.98 tbr, 24k tbn (default)
      Metadata:
        handler_name    : VideoHandler
        vendor_id       : [0][0][0][0]
        encoder         : Lavc60.31.102 h264_qsv
  Stream #1:1[0x2](und): Audio: aac (HE-AACv2) (mp4a / 0x6134706D), 48000 Hz, stereo, fltp, 144 kb/s (default)
      Metadata:
        handler_name    : SoundHandler
        vendor_id       : [0][0][0][0]
Stream mapping:
  Stream #0:0 (hevc) -> settb:default
  Stream #1:0 (h264) -> settb:default
  ssim:default -> Stream #0:0 (wrapped_avframe)
  Stream #0:1 -> #0:1 (aac (native) -> pcm_s16le (native))
Output #0, null, to 'pipe:':
  Metadata:
    COMPATIBLE_BRANDS: isomiso2avc1mp41
    MAJOR_BRAND     : isom
    MINOR_VERSION   : 512
    encoder         : Lavf61.7.100
  Stream #0:0: Video: wrapped_avframe, yuv420p10le(tv, bt709, progressive), 1920x1080 [SAR 1:1 DAR 16:9], q=2-31, 200 kb/s, 23.98 fps, 23.98 tbn
      Metadata:
        encoder         : Lavc61.19.100 wrapped_avframe
  Stream #0:1: Audio: pcm_s16le, 48000 Hz, stereo, s16, 1536 kb/s (default)
      Metadata:
        HANDLER_NAME    : SoundHandler
        VENDOR_ID       : [0][0][0][0]
        _STATISTICS_TAGS: BPS DURATION NUMBER_OF_FRAMES NUMBER_OF_BYTES
        BPS             : 192857
        DURATION        : 00:23:41.610000000
        NUMBER_OF_FRAMES: 66639
        NUMBER_OF_BYTES : 34271070
        _STATISTICS_WRITING_APP: mkvpropedit v66.0.0 ('Josie') 64-bit
        _STATISTICS_WRITING_DATE_UTC: 2025-05-08 11:05:08
        encoder         : Lavc61.19.100 pcm_s16le
frame=  169 fps=0.0 q=-0.0 size=N/A time=00:00:07.04 bitrate=N/A speed=13.5x    frame=  390 fps=373 q=-0.0 size=N/A time=00:00:16.26 bitrate=N/A speed=15.6x    frame=  618 fps=398 q=-0.0 size=N/A time=00:00:25.77 bitrate=N/A speed=16.6x    frame=  855 fps=412 q=-0.0 size=N/A time=00:00:35.66 bitrate=N/A speed=17.2x    frame= 1039 fps=402 q=-0.0 size=N/A time=00:00:43.33 bitrate=N/A speed=16.8x    frame= 1234 fps=397 q=-0.0 size=N/A time=00:00:51.46 bitrate=N/A speed=16.6x    frame= 1407 fps=388 q=-0.0 size=N/A time=00:00:58.68 bitrate=N/A speed=16.2x    frame= 1617 fps=390 q=-0.0 size=N/A time=00:01:07.44 bitrate=N/A speed=16.3x    frame= 1837 fps=393 q=-0.0 size=N/A time=00:01:16.61 bitrate=N/A speed=16.4x    frame= 2050 fps=395 q=-0.0 size=N/A time=00:01:25.50 bitrate=N/A speed=16.5x    frame= 2281 fps=400 q=-0.0 size=N/A time=00:01:35.13 bitrate=N/A speed=16.7x    frame= 2468 fps=396 q=-0.0 size=N/A time=00:01:42.93 bitrate=N/A speed=16.5x    frame= 2652 fps=394 q=-0.0 size=N/A time=00:01:50.61 bitrate=N/A speed=16.4x    frame= 2861 fps=394 q=-0.0 size=N/A time=00:01:59.32 bitrate=N/A speed=16.4x    frame= 3086 fps=397 q=-0.0 size=N/A time=00:02:08.71 bitrate=N/A speed=16.5x    frame= 3283 fps=396 q=-0.0 size=N/A time=00:02:16.92 bitrate=N/A speed=16.5x    frame= 3485 fps=396 q=-0.0 size=N/A time=00:02:25.35 bitrate=N/A speed=16.5x    frame= 3734 fps=401 q=-0.0 size=N/A time=00:02:35.73 bitrate=N/A speed=16.7x    frame= 3939 fps=400 q=-0.0 size=N/A time=00:02:44.28 bitrate=N/A speed=16.7x    frame= 4086 fps=395 q=-0.0 size=N/A time=00:02:50.42 bitrate=N/A speed=16.5x    frame= 4274 fps=393 q=-0.0 size=N/A time=00:02:58.26 bitrate=N/A speed=16.4x    frame= 4465 fps=392 q=-0.0 size=N/A time=00:03:06.22 bitrate=N/A speed=16.4x    frame= 4719 fps=396 q=-0.0 size=N/A time=00:03:16.82 bitrate=N/A speed=16.5x    frame= 4972 fps=401 q=-0.0 size=N/A time=00:03:27.37 bitrate=N/A speed=16.7x    frame= 5239 fps=405 q=-0.0 size=N/A time=00:03:38.50 bitrate=N/A speed=16.9x    frame= 5491 fps=408 q=-0.0 size=N/A time=00:03:49.02 bitrate=N/A speed=  17x    frame= 5745 fps=411 q=-0.0 size=N/A time=00:03:59.61 bitrate=N/A speed=17.2x    frame= 6010 fps=415 q=-0.0 size=N/A time=00:04:10.66 bitrate=N/A speed=17.3x    frame= 6267 fps=418 q=-0.0 size=N/A time=00:04:21.38 bitrate=N/A speed=17.4x    frame= 6497 fps=419 q=-0.0 size=N/A time=00:04:30.97 bitrate=N/A speed=17.5x    frame= 6760 fps=422 q=-0.0 size=N/A time=00:04:41.94 bitrate=N/A speed=17.6x    frame= 6953 fps=421 q=-0.0 size=N/A time=00:04:49.99 bitrate=N/A speed=17.5x    frame= 7160 fps=420 q=-0.0 size=N/A time=00:04:58.63 bitrate=N/A speed=17.5x    frame= 7440 fps=423 q=-0.0 size=N/A time=00:05:10.31 bitrate=N/A speed=17.7x    frame= 7632 fps=422 q=-0.0 size=N/A time=00:05:18.31 bitrate=N/A speed=17.6x    frame= 7860 fps=422 q=-0.0 size=N/A time=00:05:27.82 bitrate=N/A speed=17.6x    frame= 8124 fps=425 q=-0.0 size=N/A time=00:05:38.83 bitrate=N/A speed=17.7x    frame= 8392 fps=427 q=-0.0 size=N/A time=00:05:50.01 bitrate=N/A speed=17.8x    frame= 8644 fps=429 q=-0.0 size=N/A time=00:06:00.52 bitrate=N/A speed=17.9x    frame= 8885 fps=429 q=-0.0 size=N/A time=00:06:10.57 bitrate=N/A speed=17.9x    frame= 9114 fps=430 q=-0.0 size=N/A time=00:06:20.12 bitrate=N/A speed=17.9x    frame= 9334 fps=430 q=-0.0 size=N/A time=00:06:29.30 bitrate=N/A speed=17.9x    frame= 9508 fps=427 q=-0.0 size=N/A time=00:06:36.56 bitrate=N/A speed=17.8x    frame= 9703 fps=426 q=-0.0 size=N/A time=00:06:44.69 bitrate=N/A speed=17.8x    frame= 9950 fps=427 q=-0.0 size=N/A time=00:06:54.99 bitrate=N/A speed=17.8x    frame=10178 fps=428 q=-0.0 size=N/A time=00:07:04.50 bitrate=N/A speed=17.8x    frame=10373 fps=427 q=-0.0 size=N/A time=00:07:12.64 bitrate=N/A speed=17.8x    frame=10620 fps=428 q=-0.0 size=N/A time=00:07:22.94 bitrate=N/A speed=17.8x    frame=10875 fps=429 q=-0.0 size=N/A time=00:07:33.57 bitrate=N/A speed=17.9x    frame=11127 fps=430 q=-0.0 size=N/A time=00:07:44.08 bitrate=N/A speed=17.9x    frame=11335 fps=430 q=-0.0 size=N/A time=00:07:52.76 bitrate=N/A speed=17.9x    frame=11556 fps=430 q=-0.0 size=N/A time=00:08:01.98 bitrate=N/A speed=17.9x    frame=11824 fps=432 q=-0.0 size=N/A time=00:08:13.15 bitrate=N/A speed=  18x    frame=12115 fps=434 q=-0.0 size=N/A time=00:08:25.29 bitrate=N/A speed=18.1x    frame=12373 fps=435 q=-0.0 size=N/A time=00:08:36.05 bitrate=N/A speed=18.2x    frame=12618 fps=436 q=-0.0 size=N/A time=00:08:46.27 bitrate=N/A speed=18.2x    frame=12879 fps=437 q=-0.0 size=N/A time=00:08:57.16 bitrate=N/A speed=18.2x    frame=13132 fps=438 q=-0.0 size=N/A time=00:09:07.71 bitrate=N/A speed=18.3x    frame=13394 fps=439 q=-0.0 size=N/A time=00:09:18.64 bitrate=N/A speed=18.3x    frame=13658 fps=440 q=-0.0 size=N/A time=00:09:29.65 bitrate=N/A speed=18.4x    frame=13937 fps=442 q=-0.0 size=N/A time=00:09:41.28 bitrate=N/A speed=18.4x    frame=14160 fps=442 q=-0.0 size=N/A time=00:09:50.59 bitrate=N/A speed=18.4x    frame=14432 fps=443 q=-0.0 size=N/A time=00:10:01.93 bitrate=N/A speed=18.5x    frame=14637 fps=443 q=-0.0 size=N/A time=00:10:10.48 bitrate=N/A speed=18.5x    frame=14872 fps=443 q=-0.0 size=N/A time=00:10:20.28 bitrate=N/A speed=18.5x    frame=15122 fps=443 q=-0.0 size=N/A time=00:10:30.71 bitrate=N/A speed=18.5x    frame=15389 fps=444 q=-0.0 size=N/A time=00:10:41.84 bitrate=N/A speed=18.5x    frame=15612 fps=444 q=-0.0 size=N/A time=00:10:51.15 bitrate=N/A speed=18.5x    frame=15851 fps=445 q=-0.0 size=N/A time=00:11:01.11 bitrate=N/A speed=18.5x    frame=16091 fps=445 q=-0.0 size=N/A time=00:11:11.12 bitrate=N/A speed=18.6x    frame=16326 fps=445 q=-0.0 size=N/A time=00:11:20.93 bitrate=N/A speed=18.6x    frame=16548 fps=445 q=-0.0 size=N/A time=00:11:30.18 bitrate=N/A speed=18.6x    frame=16782 fps=445 q=-0.0 size=N/A time=00:11:39.94 bitrate=N/A speed=18.6x    frame=17035 fps=446 q=-0.0 size=N/A time=00:11:50.50 bitrate=N/A speed=18.6x    frame=17297 fps=446 q=-0.0 size=N/A time=00:12:01.42 bitrate=N/A speed=18.6x    frame=17547 fps=447 q=-0.0 size=N/A time=00:12:11.85 bitrate=N/A speed=18.6x    frame=17817 fps=448 q=-0.0 size=N/A time=00:12:23.11 bitrate=N/A speed=18.7x    frame=18061 fps=448 q=-0.0 size=N/A time=00:12:33.29 bitrate=N/A speed=18.7x    frame=18280 fps=448 q=-0.0 size=N/A time=00:12:42.42 bitrate=N/A speed=18.7x    frame=18541 fps=448 q=-0.0 size=N/A time=00:12:53.31 bitrate=N/A speed=18.7x    frame=18777 fps=449 q=-0.0 size=N/A time=00:13:03.15 bitrate=N/A speed=18.7x    frame=18953 fps=447 q=-0.0 size=N/A time=00:13:10.49 bitrate=N/A speed=18.7x    frame=19147 fps=446 q=-0.0 size=N/A time=00:13:18.58 bitrate=N/A speed=18.6x    frame=19363 fps=446 q=-0.0 size=N/A time=00:13:27.59 bitrate=N/A speed=18.6x    frame=19553 fps=445 q=-0.0 size=N/A time=00:13:35.52 bitrate=N/A speed=18.6x    frame=19716 fps=444 q=-0.0 size=N/A time=00:13:42.32 bitrate=N/A speed=18.5x    frame=19875 fps=442 q=-0.0 size=N/A time=00:13:48.95 bitrate=N/A speed=18.4x    frame=20030 fps=441 q=-0.0 size=N/A time=00:13:55.41 bitrate=N/A speed=18.4x    frame=20170 fps=439 q=-0.0 size=N/A time=00:14:01.25 bitrate=N/A speed=18.3x    frame=20335 fps=437 q=-0.0 size=N/A time=00:14:08.13 bitrate=N/A speed=18.2x    frame=20562 fps=437 q=-0.0 size=N/A time=00:14:17.60 bitrate=N/A speed=18.2x    frame=20820 fps=438 q=-0.0 size=N/A time=00:14:28.36 bitrate=N/A speed=18.3x    frame=21086 fps=439 q=-0.0 size=N/A time=00:14:39.46 bitrate=N/A speed=18.3x    frame=21353 fps=440 q=-0.0 size=N/A time=00:14:50.59 bitrate=N/A speed=18.3x    frame=21603 fps=440 q=-0.0 size=N/A time=00:15:01.02 bitrate=N/A speed=18.4x    frame=21840 fps=440 q=-0.0 size=N/A time=00:15:10.91 bitrate=N/A speed=18.4x    frame=22078 fps=441 q=-0.0 size=N/A time=00:15:20.83 bitrate=N/A speed=18.4x    frame=22327 fps=441 q=-0.0 size=N/A time=00:15:31.22 bitrate=N/A speed=18.4x    frame=22563 fps=441 q=-0.0 size=N/A time=00:15:41.06 bitrate=N/A speed=18.4x    frame=22840 fps=442 q=-0.0 size=N/A time=00:15:52.61 bitrate=N/A speed=18.4x    frame=23084 fps=443 q=-0.0 size=N/A time=00:16:02.79 bitrate=N/A speed=18.5x    frame=23342 fps=443 q=-0.0 size=N/A time=00:16:13.55 bitrate=N/A speed=18.5x    frame=23609 fps=444 q=-0.0 size=N/A time=00:16:24.69 bitrate=N/A speed=18.5x    frame=23834 fps=444 q=-0.0 size=N/A time=00:16:34.07 bitrate=N/A speed=18.5x    frame=24038 fps=443 q=-0.0 size=N/A time=00:16:42.58 bitrate=N/A speed=18.5x    frame=24252 fps=443 q=-0.0 size=N/A time=00:16:51.51 bitrate=N/A speed=18.5x    frame=24508 fps=444 q=-0.0 size=N/A time=00:17:02.18 bitrate=N/A speed=18.5x    frame=24762 fps=444 q=-0.0 size=N/A time=00:17:12.78 bitrate=N/A speed=18.5x    frame=25027 fps=445 q=-0.0 size=N/A time=00:17:23.83 bitrate=N/A speed=18.5x    frame=25248 fps=444 q=-0.0 size=N/A time=00:17:33.05 bitrate=N/A speed=18.5x    frame=25515 fps=445 q=-0.0 size=N/A time=00:17:44.18 bitrate=N/A speed=18.6x    frame=25777 fps=446 q=-0.0 size=N/A time=00:17:55.11 bitrate=N/A speed=18.6x    frame=26058 fps=446 q=-0.0 size=N/A time=00:18:06.83 bitrate=N/A speed=18.6x    frame=26288 fps=447 q=-0.0 size=N/A time=00:18:16.42 bitrate=N/A speed=18.6x    frame=26563 fps=447 q=-0.0 size=N/A time=00:18:27.89 bitrate=N/A speed=18.7x    frame=26818 fps=448 q=-0.0 size=N/A time=00:18:38.53 bitrate=N/A speed=18.7x    frame=27029 fps=447 q=-0.0 size=N/A time=00:18:47.33 bitrate=N/A speed=18.7x    frame=27285 fps=448 q=-0.0 size=N/A time=00:18:58.01 bitrate=N/A speed=18.7x    frame=27583 fps=449 q=-0.0 size=N/A time=00:19:10.44 bitrate=N/A speed=18.7x    frame=27854 fps=449 q=-0.0 size=N/A time=00:19:21.74 bitrate=N/A speed=18.7x    frame=28098 fps=450 q=-0.0 size=N/A time=00:19:31.92 bitrate=N/A speed=18.7x    frame=28321 fps=449 q=-0.0 size=N/A time=00:19:41.22 bitrate=N/A speed=18.7x    frame=28555 fps=449 q=-0.0 size=N/A time=00:19:50.98 bitrate=N/A speed=18.7x    frame=28825 fps=450 q=-0.0 size=N/A time=00:20:02.24 bitrate=N/A speed=18.8x    frame=29035 fps=450 q=-0.0 size=N/A time=00:20:11.00 bitrate=N/A speed=18.8x    frame=29310 fps=450 q=-0.0 size=N/A time=00:20:22.47 bitrate=N/A speed=18.8x    frame=29563 fps=451 q=-0.0 size=N/A time=00:20:33.02 bitrate=N/A speed=18.8x    frame=29837 fps=451 q=-0.0 size=N/A time=00:20:44.45 bitrate=N/A speed=18.8x    frame=30112 fps=452 q=-0.0 size=N/A time=00:20:55.92 bitrate=N/A speed=18.8x    frame=30386 fps=453 q=-0.0 size=N/A time=00:21:07.34 bitrate=N/A speed=18.9x    frame=30659 fps=453 q=-0.0 size=N/A time=00:21:18.73 bitrate=N/A speed=18.9x    frame=30927 fps=454 q=-0.0 size=N/A time=00:21:29.91 bitrate=N/A speed=18.9x    frame=31177 fps=454 q=-0.0 size=N/A time=00:21:40.34 bitrate=N/A speed=18.9x    frame=31422 fps=454 q=-0.0 size=N/A time=00:21:50.55 bitrate=N/A speed=18.9x    frame=31671 fps=454 q=-0.0 size=N/A time=00:22:00.94 bitrate=N/A speed=18.9x    frame=31844 fps=453 q=-0.0 size=N/A time=00:22:08.16 bitrate=N/A speed=18.9x    frame=32015 fps=452 q=-0.0 size=N/A time=00:22:15.29 bitrate=N/A speed=18.9x    frame=32163 fps=451 q=-0.0 size=N/A time=00:22:21.46 bitrate=N/A speed=18.8x    frame=32362 fps=451 q=-0.0 size=N/A time=00:22:29.76 bitrate=N/A speed=18.8x    frame=32530 fps=450 q=-0.0 size=N/A time=00:22:36.77 bitrate=N/A speed=18.8x    frame=32695 fps=449 q=-0.0 size=N/A time=00:22:43.65 bitrate=N/A speed=18.7x    frame=32860 fps=448 q=-0.0 size=N/A time=00:22:50.53 bitrate=N/A speed=18.7x    frame=33022 fps=447 q=-0.0 size=N/A time=00:22:57.29 bitrate=N/A speed=18.6x    frame=33192 fps=446 q=-0.0 size=N/A time=00:23:04.38 bitrate=N/A speed=18.6x    frame=33350 fps=445 q=-0.0 size=N/A time=00:23:10.97 bitrate=N/A speed=18.6x    frame=33502 fps=444 q=-0.0 size=N/A time=00:23:17.31 bitrate=N/A speed=18.5x    frame=33658 fps=443 q=-0.0 size=N/A time=00:23:23.81 bitrate=N/A speed=18.5x    frame=33802 fps=442 q=-0.0 size=N/A time=00:23:29.82 bitrate=N/A speed=18.4x    frame=33960 fps=441 q=-0.0 size=N/A time=00:23:36.41 bitrate=N/A speed=18.4x    [Parsed_ssim_10 @ 0000017680c2b980] SSIM Y:0.995007 (23.016509) U:0.993426 (21.821930) V:0.993221 (21.688041) All:0.994446 (22.553869)
[out#0/null @ 00000176f37feec0] video:14645KiB audio:266556KiB subtitle:0KiB other streams:0KiB global headers:0KiB muxing overhead: unknown
frame=34082 fps=441 q=-0.0 Lsize=N/A time=00:23:41.50 bitrate=N/A speed=18.4x    
